<svg width="491" height="472" viewBox="0 0 491 472" fill="none" xmlns="http://www.w3.org/2000/svg">
<g filter="url(#filter0_d_3_72)">
<path d="M164.729 139.996C165.583 143.485 162.531 146.632 159.047 145.758C111.759 133.905 26.0933 92.6408 4.46315 6.37459C3.66325 3.18441 6.19272 0.184661 9.46166 0.546697C55.2324 5.61582 140.028 39.0821 164.729 139.996Z" fill="#3B4348"/>
<path d="M313.041 139.781C311.842 143.167 314.562 146.604 318.116 146.085C366.354 139.045 455.729 106.599 485.905 22.9417C487.021 19.8482 484.806 16.61 481.517 16.6416C435.469 17.0844 347.743 41.8586 313.041 139.781Z" fill="#3B4348"/>
<path d="M152.679 286.383C151.422 285.132 150.913 283.342 151.329 281.618L186.647 135.311C187.189 133.066 189.198 131.484 191.508 131.484H232.816C235.577 131.484 237.816 133.723 237.816 136.484V464C237.816 389.378 182.318 315.866 152.679 286.383Z" fill="#3B4348"/>
<path d="M328.079 286.383C329.336 285.132 329.846 283.342 329.43 281.618L294.111 135.311C293.569 133.066 291.56 131.484 289.25 131.484H247.943C245.181 131.484 242.943 133.723 242.943 136.484V464C242.943 389.378 298.441 315.866 328.079 286.383Z" fill="#3B4348"/>
<path d="M263.451 279.177C263.451 291.646 253.351 301.755 240.892 301.755C228.433 301.755 218.333 291.646 218.333 279.177C218.333 266.707 228.433 256.599 240.892 256.599C253.351 256.599 263.451 266.707 263.451 279.177Z" fill="#24292C"/>
</g>
<defs>
<filter id="filter0_d_3_72" x="0.314209" y="0.516941" width="489.883" height="471.483" filterUnits="userSpaceOnUse" color-interpolation-filters="sRGB">
<feFlood flood-opacity="0" result="BackgroundImageFix"/>
<feColorMatrix in="SourceAlpha" type="matrix" values="0 0 0 0 0 0 0 0 0 0 0 0 0 0 0 0 0 0 127 0" result="hardAlpha"/>
<feOffset dy="4"/>
<feGaussianBlur stdDeviation="2"/>
<feComposite in2="hardAlpha" operator="out"/>
<feColorMatrix type="matrix" values="0 0 0 0 0 0 0 0 0 0 0 0 0 0 0 0 0 0 0.25 0"/>
<feBlend mode="normal" in2="BackgroundImageFix" result="effect1_dropShadow_3_72"/>
<feBlend mode="normal" in="SourceGraphic" in2="effect1_dropShadow_3_72" result="shape"/>
</filter>
</defs>
</svg>
